<svg width="149" height="54" viewBox="0 0 149 54" fill="none" xmlns="http://www.w3.org/2000/svg">
<rect x="0.569832" y="0.569832" width="147.117" height="52.4804" rx="4.73184" fill="#090909" stroke="#555555" stroke-width="0.860335"/>
<path d="M33.0607 27.909C33.09 25.6263 34.3111 23.4664 36.2483 22.2708C35.0262 20.5186 32.9792 19.4077 30.8496 19.3408C28.5782 19.1014 26.3761 20.7053 25.2186 20.7053C24.0387 20.7053 22.2566 19.3645 20.3375 19.4042C17.8361 19.4853 15.5042 20.913 14.2872 23.1085C11.6711 27.6554 13.6225 34.3379 16.1284 38.0133C17.3822 39.8131 18.8475 41.8234 20.7649 41.7521C22.6411 41.674 23.3418 40.5511 25.6066 40.5511C27.8503 40.5511 28.5077 41.7521 30.464 41.7068C32.4773 41.674 33.7457 39.8991 34.9555 38.0823C35.8563 36.7999 36.5495 35.3826 37.0094 33.8828C34.6434 32.8783 33.0634 30.4879 33.0607 27.909Z" fill="white"/>
<path d="M29.3657 16.9236C30.4634 15.6007 31.0042 13.9003 30.8732 12.1836C29.1961 12.3604 27.647 13.1651 26.5345 14.4372C25.4465 15.6802 24.8804 17.3507 24.9874 19.0018C26.6651 19.0192 28.3144 18.2363 29.3657 16.9236Z" fill="white"/>
<path d="M51.6348 13.9243V19.8493H53.7657C55.5244 19.8493 56.5428 18.7612 56.5428 16.8683C56.5428 15.0042 55.5162 13.9243 53.7657 13.9243H51.6348ZM52.5509 14.762H53.6634C54.8863 14.762 55.6103 15.5421 55.6103 16.8807C55.6103 18.2397 54.8986 19.0117 53.6634 19.0117H52.5509V14.762Z" fill="white"/>
<path d="M59.6619 19.9355C60.9625 19.9355 61.7601 19.0609 61.7601 17.6115C61.7601 16.1703 60.9584 15.2916 59.6619 15.2916C58.3612 15.2916 57.5596 16.1703 57.5596 17.6115C57.5596 19.0609 58.3571 19.9355 59.6619 19.9355ZM59.6619 19.1513C58.897 19.1513 58.4676 18.5888 58.4676 17.6115C58.4676 16.6425 58.897 16.0759 59.6619 16.0759C60.4226 16.0759 60.8562 16.6425 60.8562 17.6115C60.8562 18.5846 60.4226 19.1513 59.6619 19.1513Z" fill="white"/>
<path d="M68.552 15.3779H67.6726L66.8791 18.7899H66.8096L65.8934 15.3779H65.0509L64.1347 18.7899H64.0693L63.2717 15.3779H62.3801L63.6071 19.8493H64.511L65.4272 16.5563H65.4967L66.417 19.8493H67.329L68.552 15.3779Z" fill="white"/>
<path d="M69.5647 19.8493H70.444V17.2338C70.444 16.5358 70.8571 16.1005 71.5074 16.1005C72.1577 16.1005 72.4686 16.4577 72.4686 17.1763V19.8493H73.3479V16.9546C73.3479 15.8911 72.7999 15.2916 71.806 15.2916C71.1352 15.2916 70.6935 15.5914 70.4767 16.0882H70.4113V15.3779H69.5647V19.8493Z" fill="white"/>
<path d="M74.7328 19.8493H75.6122V13.6328H74.7328V19.8493Z" fill="white"/>
<path d="M78.9194 19.9355C80.22 19.9355 81.0176 19.0609 81.0176 17.6115C81.0176 16.1703 80.2159 15.2916 78.9194 15.2916C77.6188 15.2916 76.8171 16.1703 76.8171 17.6115C76.8171 19.0609 77.6147 19.9355 78.9194 19.9355ZM78.9194 19.1513C78.1546 19.1513 77.7251 18.5888 77.7251 17.6115C77.7251 16.6425 78.1546 16.0759 78.9194 16.0759C79.6801 16.0759 80.1137 16.6425 80.1137 17.6115C80.1137 18.5846 79.6801 19.1513 78.9194 19.1513Z" fill="white"/>
<path d="M83.6376 19.18C83.1591 19.18 82.8115 18.946 82.8115 18.5436C82.8115 18.1494 83.0896 17.94 83.7031 17.8989L84.791 17.8291V18.2028C84.791 18.7571 84.3002 19.18 83.6376 19.18ZM83.4127 19.9232C83.9976 19.9232 84.4843 19.6686 84.7501 19.2211H84.8197V19.8493H85.6663V16.7944C85.6663 15.8501 85.0364 15.2916 83.9199 15.2916C82.9096 15.2916 82.1898 15.7844 82.0998 16.5522H82.9505C83.0487 16.236 83.3882 16.0554 83.879 16.0554C84.4802 16.0554 84.791 16.3222 84.791 16.7944V17.1804L83.5845 17.2502C82.5252 17.3159 81.928 17.7799 81.928 18.5846C81.928 19.4017 82.5538 19.9232 83.4127 19.9232Z" fill="white"/>
<path d="M88.6504 19.9232C89.2639 19.9232 89.7833 19.6317 90.0492 19.1431H90.1187V19.8493H90.9613V13.6328H90.0819V16.0882H90.0165C89.7752 15.5955 89.2598 15.304 88.6504 15.304C87.5256 15.304 86.8017 16.1991 86.8017 17.6115C86.8017 19.0281 87.5175 19.9232 88.6504 19.9232ZM88.8999 16.0964C89.6361 16.0964 90.0983 16.6836 90.0983 17.6156C90.0983 18.5518 89.6402 19.1307 88.8999 19.1307C88.1555 19.1307 87.7097 18.56 87.7097 17.6115C87.7097 16.6713 88.1596 16.0964 88.8999 16.0964Z" fill="white"/>
<path d="M96.6636 19.9355C97.9642 19.9355 98.7618 19.0609 98.7618 17.6115C98.7618 16.1703 97.9601 15.2916 96.6636 15.2916C95.363 15.2916 94.5613 16.1703 94.5613 17.6115C94.5613 19.0609 95.3589 19.9355 96.6636 19.9355ZM96.6636 19.1513C95.8988 19.1513 95.4693 18.5888 95.4693 17.6115C95.4693 16.6425 95.8988 16.0759 96.6636 16.0759C97.4243 16.0759 97.8579 16.6425 97.8579 17.6115C97.8579 18.5846 97.4243 19.1513 96.6636 19.1513Z" fill="white"/>
<path d="M99.9258 19.8493H100.805V17.2338C100.805 16.5358 101.218 16.1005 101.869 16.1005C102.519 16.1005 102.83 16.4577 102.83 17.1763V19.8493H103.709V16.9546C103.709 15.8911 103.161 15.2916 102.167 15.2916C101.496 15.2916 101.055 15.5914 100.838 16.0882H100.772V15.3779H99.9258V19.8493Z" fill="white"/>
<path d="M107.759 14.2651V15.3984H107.051V16.1416H107.759V18.6668C107.759 19.529 108.148 19.8739 109.125 19.8739C109.297 19.8739 109.46 19.8534 109.604 19.8288V19.0938C109.481 19.1061 109.403 19.1143 109.268 19.1143C108.831 19.1143 108.638 18.909 108.638 18.4409V16.1416H109.604V15.3984H108.638V14.2651H107.759Z" fill="white"/>
<path d="M110.784 19.8493H111.663V17.2379C111.663 16.5604 112.064 16.1046 112.784 16.1046C113.406 16.1046 113.737 16.466 113.737 17.1804V19.8493H114.616V16.9628C114.616 15.8993 114.032 15.2957 113.083 15.2957C112.412 15.2957 111.942 15.5955 111.725 16.0964H111.655V13.6328H110.784V19.8493Z" fill="white"/>
<path d="M117.789 16.043C118.439 16.043 118.864 16.4988 118.885 17.2009H116.635C116.684 16.5029 117.138 16.043 117.789 16.043ZM118.881 18.6421C118.717 18.9911 118.353 19.1841 117.821 19.1841C117.118 19.1841 116.664 18.6873 116.635 17.9031V17.8538H119.78V17.5458C119.78 16.1416 119.032 15.2916 117.793 15.2916C116.537 15.2916 115.74 16.1991 115.74 17.6279C115.74 19.0568 116.521 19.9355 117.797 19.9355C118.815 19.9355 119.527 19.4428 119.727 18.6421H118.881Z" fill="white"/>
<path d="M100.082 25.7981V28.3057H98.5513V29.9501H100.082V35.5376C100.082 37.4455 100.922 38.2087 103.036 38.2087C103.408 38.2087 103.762 38.1632 104.071 38.1087V36.4825C103.806 36.5097 103.638 36.5279 103.346 36.5279C102.4 36.5279 101.984 36.0736 101.984 35.0379V29.9501H104.071V28.3057H101.984V25.7981H100.082Z" fill="white"/>
<path d="M109.458 38.3449C112.271 38.3449 113.996 36.4098 113.996 33.2027C113.996 30.0137 112.262 28.0695 109.458 28.0695C106.644 28.0695 104.91 30.0137 104.91 33.2027C104.91 36.4098 106.636 38.3449 109.458 38.3449ZM109.458 36.6096C107.803 36.6096 106.874 35.365 106.874 33.2027C106.874 31.0585 107.803 29.8047 109.458 29.8047C111.103 29.8047 112.041 31.0585 112.041 33.2027C112.041 35.3559 111.103 36.6096 109.458 36.6096Z" fill="white"/>
<path d="M115.472 38.1541H117.374V32.3123C117.374 30.9222 118.391 29.9865 119.833 29.9865C120.169 29.9865 120.735 30.0501 120.894 30.1046V28.1785C120.691 28.124 120.328 28.0967 120.045 28.0967C118.789 28.0967 117.719 28.8054 117.444 29.7775H117.303V28.2602H115.472V38.1541Z" fill="white"/>
<path d="M125.617 29.7321C127.024 29.7321 127.944 30.7405 127.988 32.2941H123.122C123.229 30.7496 124.21 29.7321 125.617 29.7321ZM127.979 35.4831C127.625 36.2553 126.838 36.6823 125.688 36.6823C124.166 36.6823 123.184 35.583 123.122 33.8477V33.7387H129.925V33.0573C129.925 29.9501 128.306 28.0695 125.626 28.0695C122.91 28.0695 121.185 30.0773 121.185 33.239C121.185 36.4007 122.875 38.3449 125.635 38.3449C127.837 38.3449 129.377 37.2547 129.81 35.4831H127.979Z" fill="white"/>
<path d="M87.6089 34.5005C87.7556 36.93 89.7269 38.4837 92.661 38.4837C95.7968 38.4837 97.759 36.8546 97.759 34.2557C97.759 32.2122 96.6404 31.0822 93.9263 30.4325L92.4685 30.0652C90.7447 29.6509 90.0478 29.0953 90.0478 28.1254C90.0478 26.9012 91.1298 26.1008 92.7527 26.1008C94.2931 26.1008 95.3567 26.8824 95.5493 28.1348H97.5481C97.4289 25.8466 95.4667 24.2363 92.7802 24.2363C89.892 24.2363 87.9665 25.8466 87.9665 28.2667C87.9665 30.263 89.0576 31.4495 91.4507 32.0239L93.1561 32.4477C94.9074 32.8714 95.6776 33.4929 95.6776 34.5287C95.6776 35.7341 94.4673 36.6098 92.8169 36.6098C91.0473 36.6098 89.8186 35.7906 89.6444 34.5005H87.6089Z" fill="white"/>
<path d="M67.9064 28.0967C66.5971 28.0967 65.4648 28.769 64.8809 29.8956H64.7394V28.2602H62.9082V41.443H64.8101V36.6551H64.9605C65.4648 37.6999 66.5529 38.3177 67.9241 38.3177C70.3568 38.3177 71.9049 36.3462 71.9049 33.2027C71.9049 30.0591 70.3568 28.0967 67.9064 28.0967ZM67.3667 36.5642C65.7744 36.5642 64.7748 35.2741 64.7748 33.2117C64.7748 31.1403 65.7744 29.8502 67.3756 29.8502C68.9856 29.8502 69.9499 31.113 69.9499 33.2027C69.9499 35.3014 68.9856 36.5642 67.3667 36.5642Z" fill="white"/>
<path d="M78.5603 28.0967C77.251 28.0967 76.1187 28.769 75.5348 29.8956H75.3933V28.2602H73.5621V41.443H75.464V36.6551H75.6144C76.1187 37.6999 77.2068 38.3177 78.578 38.3177C81.0107 38.3177 82.5588 36.3462 82.5588 33.2027C82.5588 30.0591 81.0107 28.0967 78.5603 28.0967ZM78.0206 36.5642C76.4283 36.5642 75.4286 35.2741 75.4286 33.2117C75.4286 31.1403 76.4283 29.8502 78.0295 29.8502C79.6395 29.8502 80.6038 31.113 80.6038 33.2027C80.6038 35.3014 79.6395 36.5642 78.0206 36.5642Z" fill="white"/>
<path d="M59.4957 38.1541H61.6779L56.9009 24.5659H54.6911L49.9141 38.1541H52.0229L53.2424 34.5476H58.2854L59.4957 38.1541ZM55.6905 27.0331H55.8464L57.7627 32.7772H53.7651L55.6905 27.0331Z" fill="white"/>
</svg>
