<svg xmlns="http://www.w3.org/2000/svg" width="35.25" height="50.25" viewBox="0 0 35.25 50.25">
  <g id="noun-calculator-2409498" transform="translate(-174.875 -34.875)">
    <path id="Path_62" data-name="Path 62" d="M203.875,35h-22.75A6.2,6.2,0,0,0,175,41.25v37.5A6.2,6.2,0,0,0,181.125,85h22.75A6.2,6.2,0,0,0,210,78.75V41.25A6.2,6.2,0,0,0,203.875,35Zm4.375,43.75a4.426,4.426,0,0,1-4.375,4.464h-22.75a4.426,4.426,0,0,1-4.375-4.464V41.25a4.426,4.426,0,0,1,4.375-4.464h22.75a4.426,4.426,0,0,1,4.375,4.464Z" stroke="#000" stroke-width="0.25"/>
    <path id="Path_63" data-name="Path 63" d="M240.168,78.75H223.034a4.061,4.061,0,0,0-4.284,3.781v3.781a4.061,4.061,0,0,0,4.284,3.781h17.135a4.061,4.061,0,0,0,4.284-3.781V82.531A4.061,4.061,0,0,0,240.168,78.75Zm2.57,7.562a2.436,2.436,0,0,1-2.57,2.269H223.034a2.436,2.436,0,0,1-2.57-2.269V82.531a2.436,2.436,0,0,1,2.57-2.269h17.135a2.436,2.436,0,0,1,2.57,2.269Z" transform="translate(-39.101 -39.05)" fill="#cf2230" stroke="#cf2230" stroke-width="0.25"/>
    <path id="Path_64" data-name="Path 64" d="M414.969,236.25a3.76,3.76,0,1,0,3.719,3.76A3.743,3.743,0,0,0,414.969,236.25Zm0,5.64a1.88,1.88,0,1,1,1.86-1.88A1.872,1.872,0,0,1,414.969,241.89Z" transform="translate(-213.337 -180.895)" stroke="#000" stroke-width="0.25"/>
    <path id="Path_65" data-name="Path 65" d="M318.719,236.25a3.76,3.76,0,1,0,3.719,3.76A3.743,3.743,0,0,0,318.719,236.25Zm0,5.64a1.88,1.88,0,1,1,1.86-1.88A1.872,1.872,0,0,1,318.719,241.89Z" transform="translate(-126.219 -180.895)" stroke="#000" stroke-width="0.25"/>
    <path id="Path_66" data-name="Path 66" d="M222.469,236.25a3.76,3.76,0,1,0,3.719,3.76A3.743,3.743,0,0,0,222.469,236.25Zm0,5.64a1.88,1.88,0,1,1,1.86-1.88A1.872,1.872,0,0,1,222.469,241.89Z" transform="translate(-39.101 -180.895)" stroke="#000" stroke-width="0.25"/>
    <path id="Path_67" data-name="Path 67" d="M414.969,323.75a3.76,3.76,0,1,0,3.719,3.76A3.743,3.743,0,0,0,414.969,323.75Zm0,5.64a1.88,1.88,0,1,1,1.86-1.88A1.872,1.872,0,0,1,414.969,329.39Z" transform="translate(-213.337 -259.545)" stroke="#000" stroke-width="0.25"/>
    <path id="Path_68" data-name="Path 68" d="M318.719,323.75a3.76,3.76,0,1,0,3.719,3.76A3.743,3.743,0,0,0,318.719,323.75Zm0,5.64a1.88,1.88,0,1,1,1.86-1.88A1.872,1.872,0,0,1,318.719,329.39Z" transform="translate(-126.219 -259.545)" stroke="#000" stroke-width="0.25"/>
    <path id="Path_69" data-name="Path 69" d="M222.469,323.75a3.76,3.76,0,1,0,3.719,3.76A3.743,3.743,0,0,0,222.469,323.75Zm0,5.64a1.88,1.88,0,1,1,1.86-1.88A1.872,1.872,0,0,1,222.469,329.39Z" transform="translate(-39.101 -259.545)" stroke="#000" stroke-width="0.25"/>
    <path id="Path_70" data-name="Path 70" d="M414.969,411.25a3.76,3.76,0,1,0,3.719,3.76A3.743,3.743,0,0,0,414.969,411.25Zm0,5.64a1.88,1.88,0,1,1,1.86-1.88A1.872,1.872,0,0,1,414.969,416.89Z" transform="translate(-213.337 -338.47)" stroke="#000" stroke-width="0.25"/>
    <path id="Path_71" data-name="Path 71" d="M318.719,411.25a3.76,3.76,0,1,0,3.719,3.76A3.743,3.743,0,0,0,318.719,411.25Zm0,5.64a1.88,1.88,0,1,1,1.86-1.88A1.872,1.872,0,0,1,318.719,416.89Z" transform="translate(-126.219 -338.47)" stroke="#000" stroke-width="0.25"/>
    <path id="Path_72" data-name="Path 72" d="M222.469,411.25a3.76,3.76,0,1,0,3.719,3.76A3.743,3.743,0,0,0,222.469,411.25Zm0,5.64a1.88,1.88,0,1,1,1.86-1.88A1.872,1.872,0,0,1,222.469,416.89Z" transform="translate(-39.101 -338.47)" stroke="#000" stroke-width="0.25"/>
  </g>
</svg>
