<svg xmlns="http://www.w3.org/2000/svg" width="24" height="14.4" viewBox="0 0 24 14.4">
  <path id="chevron_right_FILL0_wght600_GRAD0_opsz48" d="M.588,23.428A2.273,2.273,0,0,1,0,21.978a1.8,1.8,0,0,1,.587-1.4L9.362,12.05.537,3.473A1.818,1.818,0,0,1,0,2.047,1.985,1.985,0,0,1,.588.622,1.969,1.969,0,0,1,2.055,0,2.069,2.069,0,0,1,3.469.622L13.787,10.65a2.012,2.012,0,0,1,.465.661,1.925,1.925,0,0,1,0,1.479,2.013,2.013,0,0,1-.465.661L3.521,23.428A1.91,1.91,0,0,1,2.081,24,2.414,2.414,0,0,1,.588,23.428Z" transform="translate(24) rotate(90)" fill="#cf2230"/>
</svg>
