<svg xmlns="http://www.w3.org/2000/svg" width="35.53" height="35.377" viewBox="0 0 35.53 35.377">
  <g id="Group_35772" data-name="Group 35772" transform="translate(-924.745 -965)">
    <g id="Group_35770" data-name="Group 35770" transform="translate(925 965)">
      <path id="Path_77303" data-name="Path 77303" d="M145.712,151.242a3.332,3.332,0,0,0-2.765,1.542,1.606,1.606,0,0,0-.05,1.156c1.508,6.967,2.95,14.089,4.24,20.07a3.463,3.463,0,0,0,3.285,2.482h12.251a2.758,2.758,0,0,0,2.832-2.62,2.91,2.91,0,0,0-2.832-3.037H152.7c-1.358-5.688-2.313-11.469-3.721-17.126a3.78,3.78,0,0,0-1.391-1.788,4.338,4.338,0,0,0-1.877-.678Zm7.558.432a4.56,4.56,0,0,0-2.665.971,2.527,2.527,0,0,0-1.106,2.605c1.207,4.578,2.313,9.248,3.335,13.164a4.417,4.417,0,0,0,1.123,1.341,2.729,2.729,0,0,0,1.676.647h8.782c2.933,2.59,5.9,5.148,8.815,7.738a3.119,3.119,0,0,0,3.972-.462,2.45,2.45,0,0,0,.05-3.175q-5.43-5.248-10.894-10.5a.475.475,0,0,0-.352-.139h-7.19l-1.073-3.622,1.475.54a.41.41,0,0,0,.268.031l7.558-1.311c.034-.015.084-.015.134-.031a2.691,2.691,0,0,0,1.659-2.605,2.734,2.734,0,0,0-2.883-2.574c-1.994.277-3.989.555-6,.832l-6.452-3.391a.58.58,0,0,0-.235-.062Zm-7.559.447a2.608,2.608,0,0,1,1.307.493,3.162,3.162,0,0,1,1.073,1.356q1.86,8.694,3.737,17.372a.491.491,0,0,0,.469.354h10.374c1.207.077,1.827.848,1.894,2.173a1.949,1.949,0,0,1-1.894,1.742H150.42a2.457,2.457,0,0,1-2.4-1.881c-1.475-6.982-2.966-14.042-4.223-20.023a.67.67,0,0,1,.017-.57,2.288,2.288,0,0,1,1.894-1.017Zm7.475.447,6.453,3.407a.521.521,0,0,0,.3.046c2.045-.277,4.123-.617,6.134-.863a1.842,1.842,0,0,1,1.827,1.773,1.688,1.688,0,0,1-1.14,1.742c-2.413.432-4.86.848-7.29,1.264l-2.263-.832a.488.488,0,0,0-.62.524l.922,3.129-4.324,3.237c-.888-3.653-1.877-7.291-2.765-10.944a1.642,1.642,0,0,1,.788-1.742,4.609,4.609,0,0,1,1.978-.74Zm4.592,11.1.218.755a.48.48,0,0,0,.453.308h7.374c3.519,3.484,7.207,6.829,10.709,10.328a1.54,1.54,0,0,1-.034,2.035,2.048,2.048,0,0,1-2.7.339c-2.966-2.574-5.916-5.179-8.866-7.769a.522.522,0,0,0-.335-.123h-8.967a1.884,1.884,0,0,1-1.056-.447,4.1,4.1,0,0,1-.871-1.033l-.268-1.126Z" transform="translate(-142.813 -143.646)" stroke="#000001" stroke-width="0.5"/>
      <g id="Ellipse_1285" data-name="Ellipse 1285" transform="translate(4.423)" fill="none" stroke="#cf2230" stroke-width="1.5">
        <circle cx="3.734" cy="3.734" r="3.734" stroke="none"/>
        <circle cx="3.734" cy="3.734" r="2.984" fill="none"/>
      </g>
    </g>
    <path id="Path_77305" data-name="Path 77305" d="M177.839,152.371l-9.753,10.62a.5.5,0,0,0,.018.718.573.573,0,0,0,.764-.086L178.622,153a.479.479,0,0,0-.054-.667A.559.559,0,0,0,177.839,152.371Z" transform="translate(779.188 820.379)" fill="#cf2230" stroke="#cf2230" stroke-width="1"/>
  </g>
</svg>
