<svg xmlns="http://www.w3.org/2000/svg" width="40.3" height="29.299" viewBox="0 0 40.3 29.299">
  <g id="Group_35759" data-name="Group 35759" transform="translate(11301.922 19080.9)">
    <path id="Union_22" data-name="Union 22" d="M.666,25.318A.657.657,0,0,1,0,24.67V2.613a.657.657,0,0,1,.666-.649H39.332A.659.659,0,0,1,40,2.613V24.67a.658.658,0,0,1-.667.649Zm.666-1.3H38.666V3.261H1.332ZM2.63,1.309A.662.662,0,0,1,1.961.656.662.662,0,0,1,2.63,0H37.37a.661.661,0,0,1,.668.656.66.66,0,0,1-.668.653Z" transform="translate(-11301.771 -19080.75)" stroke="#000" stroke-linejoin="round" stroke-width="0.3"/>
    <path id="Path_77276" data-name="Path 77276" d="M114.4,99.495a.651.651,0,0,1-.654-.649V96.9a.654.654,0,0,1,1.308,0v1.947A.651.651,0,0,1,114.4,99.495Z" transform="translate(-11413.561 -19177)" stroke="#000" stroke-width="0.3"/>
    <path id="Path_77277" data-name="Path 77277" d="M569.4,99.495a.651.651,0,0,1-.654-.649V96.9a.654.654,0,0,1,1.308,0v1.947A.651.651,0,0,1,569.4,99.495Z" transform="translate(-11833.793 -19177)" stroke="#000" stroke-width="0.3"/>
    <g id="Group_35756" data-name="Group 35756" transform="translate(-11297.194 -19074.346)">
      <path id="Path_77282" data-name="Path 77282" d="M155.943,198.027a7.139,7.139,0,1,1,7.193-7.138A7.174,7.174,0,0,1,155.943,198.027Zm0-12.979a5.841,5.841,0,1,0,5.885,5.841A5.87,5.87,0,0,0,155.943,185.048Z" transform="translate(-148.75 -183.75)" fill="#cf2230"/>
      <path id="Path_77283" data-name="Path 77283" d="M204.52,233.99a3.245,3.245,0,1,1,3.27-3.245A3.261,3.261,0,0,1,204.52,233.99Zm0-5.192a1.947,1.947,0,1,0,1.962,1.947A1.957,1.957,0,0,0,204.52,228.8Z" transform="translate(-197.326 -224.255)" fill="#cf2230"/>
      <path id="Path_77284" data-name="Path 77284" d="M177.284,296.4a.673.673,0,0,1-.16-.019.649.649,0,0,1-.475-.787,5.245,5.245,0,0,1,3.468-3.678.649.649,0,1,1,.4,1.235,3.938,3.938,0,0,0-2.6,2.759.65.65,0,0,1-.633.49Z" transform="translate(-174.546 -283.86)" fill="#cf2230"/>
      <path id="Path_77285" data-name="Path 77285" d="M258.807,296.48a.655.655,0,0,1-.635-.494,3.931,3.931,0,0,0-2.588-2.77.65.65,0,1,1,.408-1.234,5.243,5.243,0,0,1,3.452,3.694.65.65,0,0,1-.479.785.614.614,0,0,1-.157.02Z" transform="translate(-247.183 -283.923)" fill="#cf2230"/>
    </g>
    <path id="Path_77286" data-name="Path 77286" d="M109.374,421.3H70.625a.649.649,0,0,1,0-1.3h38.749a.649.649,0,0,1,0,1.3Z" transform="translate(-11371.771 -19476.943)"/>
    <path id="Path_77288" data-name="Path 77288" d="M70.654,425.191A.7.7,0,0,1,70,424.45v-3.708a.659.659,0,1,1,1.308,0v3.708A.7.7,0,0,1,70.654,425.191Z" transform="translate(-11371.771 -19476.943)" stroke="#000" stroke-width="0.3"/>
    <path id="Path_77304" data-name="Path 77304" d="M70.654,425.191A.7.7,0,0,1,70,424.45v-3.708a.659.659,0,1,1,1.308,0v3.708A.7.7,0,0,1,70.654,425.191Z" transform="translate(-11333.079 -19476.943)" stroke="#000" stroke-width="0.3"/>
    <path id="Path_77291" data-name="Path 77291" d="M118.1,473.8H79.4a.649.649,0,0,1,0-1.3H118.1a.649.649,0,0,1,0,1.3Z" transform="translate(-11380.521 -19525.549)" stroke="#000" stroke-width="0.3"/>
    <path id="Path_77292" data-name="Path 77292" d="M388.675,202.548H376.9a.649.649,0,1,1,0-1.3h11.771a.649.649,0,1,1,0,1.3Z" transform="translate(-11655.678 -19274.268)" stroke="#000" stroke-width="0.5"/>
    <path id="Path_77298" data-name="Path 77298" d="M381.856,202.548h-5.311c-.163,0-.3-.291-.3-.649s.132-.649.3-.649h5.311c.163,0,.3.291.3.649S382.02,202.548,381.856,202.548Z" transform="translate(-11655.678 -19270.67)" stroke="#000" stroke-width="0.5"/>
    <path id="Path_77299" data-name="Path 77299" d="M379.421,202.548h-2.876c-.163,0-.3-.291-.3-.649s.132-.649.3-.649h2.876c.163,0,.3.291.3.649S379.584,202.548,379.421,202.548Z" transform="translate(-11655.678 -19267.07)" stroke="#000" stroke-width="0.5"/>
    <path id="Path_77300" data-name="Path 77300" d="M385.509,202.548h-8.964c-.163,0-.3-.291-.3-.649s.132-.649.3-.649h8.964c.163,0,.3.291.3.649S385.672,202.548,385.509,202.548Z" transform="translate(-11650.808 -19267.07)" stroke="#000" stroke-width="0.5"/>
    <path id="Path_77301" data-name="Path 77301" d="M379.421,202.548h-2.876c-.163,0-.3-.291-.3-.649s.132-.649.3-.649h2.876c.163,0,.3.291.3.649S379.584,202.548,379.421,202.548Z" transform="translate(-11655.678 -19263.475)" stroke="#000" stroke-width="0.5"/>
    <path id="Path_77302" data-name="Path 77302" d="M385.509,202.548h-8.964c-.163,0-.3-.291-.3-.649s.132-.649.3-.649h8.964c.163,0,.3.291.3.649S385.672,202.548,385.509,202.548Z" transform="translate(-11650.808 -19263.475)" stroke="#000" stroke-width="0.5"/>
  </g>
</svg>
