<svg xmlns="http://www.w3.org/2000/svg" xmlns:xlink="http://www.w3.org/1999/xlink" width="40" height="40" viewBox="0 0 40 40">
  <defs>
    <clipPath id="clip-path">
      <rect id="Rectangle_86" data-name="Rectangle 86" width="22" height="15.125" fill="none"/>
    </clipPath>
  </defs>
  <g id="Group_268" data-name="Group 268" transform="translate(-310 -8806)">
    <g id="Ellipse_47" data-name="Ellipse 47" transform="translate(310 8806)" fill="none" stroke="#e61222" stroke-width="1">
      <circle cx="20" cy="20" r="20" stroke="none"/>
      <circle cx="20" cy="20" r="19.5" fill="none"/>
    </g>
    <g id="Group_240" data-name="Group 240" transform="translate(319 8818)">
      <g id="Group_239" data-name="Group 239" clip-path="url(#clip-path)">
        <path id="Path_302" data-name="Path 302" d="M22,4.741A4.785,4.785,0,0,0,17.172,0H4.828A4.785,4.785,0,0,0,0,4.741v5.642a4.785,4.785,0,0,0,4.828,4.741H17.172A4.785,4.785,0,0,0,22,10.384ZM14.74,7.985,9.2,10.675c-.217.115-.954-.039-.954-.281V4.872c0-.246.743-.4.961-.278l5.3,2.831c.222.124.455.44.23.56" fill="#e61222"/>
      </g>
    </g>
  </g>
</svg>
